<?xml version="1.0" standalone="no"?>
<!DOCTYPE svg PUBLIC "-//W3C//DTD SVG 20010904//EN"
 "http://www.w3.org/TR/2001/REC-SVG-20010904/DTD/svg10.dtd">
<svg version="1.0" xmlns="http://www.w3.org/2000/svg"
 width="270.000000pt" height="316.000000pt" viewBox="0 0 270.000000 316.000000"
 preserveAspectRatio="xMidYMid meet">

<g transform="translate(0.000000,316.000000) scale(0.100000,-0.100000)"
fill="#FFFFFF" stroke="#000000">
<path d="M727 2308 c102 -266 195 -510 207 -543 l23 -60 85 -3 85 -3 38 101
c21 55 40 98 43 95 3 -3 38 -90 78 -193 l71 -187 85 -3 85 -3 203 533 c112
293 205 539 208 546 3 10 -13 12 -73 10 l-78 -3 -171 -452 c-94 -249 -173
-449 -176 -445 -12 14 -154 397 -153 412 1 8 58 163 127 343 69 181 126 331
126 333 0 3 -34 4 -76 2 l-77 -3 -90 -238 -90 -239 -55 146 -54 146 -78 0 -78
0 95 -247 94 -246 -42 -114 c-24 -62 -46 -109 -50 -105 -3 4 -82 208 -174 455
l-168 447 -77 0 -77 0 184 -482z"/>
<path d="M645 1454 c-11 -3 -53 -12 -92 -20 l-73 -15 0 -65 c0 -35 2 -64 4
-64 3 0 51 11 108 25 203 49 342 19 385 -84 19 -46 12 -124 -14 -159 -40 -54
-78 -67 -208 -72 l-120 -5 -3 -62 -3 -63 98 0 c112 0 164 -12 211 -47 66 -49
88 -115 71 -203 -9 -44 -19 -63 -54 -96 -54 -53 -150 -80 -247 -69 -89 9 -169
25 -198 40 -68 34 -70 33 -70 -39 0 -75 0 -75 95 -100 86 -23 237 -31 320 -17
143 25 254 105 289 208 19 55 21 160 4 215 -16 55 -88 132 -143 155 -25 10
-45 20 -45 23 0 4 15 12 34 18 55 20 113 83 130 143 20 66 20 92 0 160 -22 72
-87 138 -169 169 -48 19 -83 24 -175 26 -63 2 -124 1 -135 -2z"/>
<path d="M1430 895 l0 -547 243 5 c266 5 324 14 434 69 69 33 149 110 181 174
43 85 56 153 57 294 0 155 -12 215 -63 313 -53 103 -127 159 -277 208 -63 20
-94 23 -322 27 l-253 4 0 -547z m482 411 c80 -17 116 -35 169 -83 83 -75 114
-179 107 -359 -6 -149 -29 -216 -98 -284 -76 -77 -200 -110 -411 -110 l-99 0
0 425 0 425 133 0 c75 0 161 -6 199 -14z"/>
</g>
</svg>
